<svg id="svg" version="1.1" xmlns="http://www.w3.org/2000/svg" xmlns:xlink="http://www.w3.org/1999/xlink" width="400" height="400" viewBox="0, 0, 400,400"><g id="svgg"><path id="path0" d="M0.000 200.000 L 0.000 400.000 200.000 400.000 L 400.000 400.000 400.000 200.000 L 400.000 0.000 200.000 0.000 L 0.000 0.000 0.000 200.000 M203.614 103.691 C 206.032 105.065,207.977 105.819,211.296 106.669 C 235.548 112.882,249.996 122.827,257.238 138.290 C 258.792 141.609,258.344 141.464,261.383 139.632 C 271.572 133.486,280.187 136.761,286.434 149.154 C 288.638 153.527,286.895 162.059,282.340 169.200 C 280.595 171.935,279.550 172.816,275.976 174.569 C 272.078 176.481,272.139 176.143,274.749 181.350 C 280.286 192.395,281.999 201.509,281.143 215.370 C 280.350 228.221,279.504 232.084,279.083 224.782 C 278.690 217.975,276.405 207.073,276.316 211.582 C 276.286 213.149,273.830 225.036,272.811 228.553 C 269.836 238.820,256.777 255.905,246.551 262.909 C 242.897 265.412,242.708 265.188,245.440 261.592 C 248.927 257.002,248.947 256.999,242.222 262.050 C 218.197 280.094,174.343 278.640,150.096 258.994 C 148.923 258.044,148.148 257.506,148.374 257.800 C 148.859 258.429,150.428 263.029,150.227 263.230 C 149.863 263.594,143.988 256.534,141.282 252.482 C 134.744 242.694,130.869 234.298,128.684 225.185 C 127.929 222.039,127.836 221.843,127.803 223.333 C 127.714 227.359,126.988 236.079,126.699 236.597 C 126.162 237.556,125.293 235.325,124.066 229.840 C 119.664 210.151,121.102 195.896,129.098 179.953 L 131.075 176.011 129.975 175.791 C 124.425 174.681,120.677 171.740,118.135 166.499 C 114.614 159.239,113.686 154.818,114.940 151.277 C 119.775 137.621,129.799 132.918,139.427 139.788 L 141.834 141.507 143.481 137.983 C 146.857 130.759,154.338 121.783,160.156 117.977 C 167.275 113.321,181.697 107.676,191.005 105.903 C 192.607 105.598,194.184 104.917,196.191 103.666 C 199.749 101.448,199.664 101.447,203.614 103.691 M170.133 136.069 C 163.792 138.426,157.318 145.583,156.315 151.346 C 155.760 154.533,155.964 154.615,157.460 151.810 C 160.106 146.845,166.695 141.078,171.372 139.633 C 179.216 137.210,191.082 140.721,197.575 147.386 C 199.329 149.187,199.543 149.209,201.154 147.762 C 214.815 135.488,232.306 136.298,241.008 149.608 C 243.546 153.491,243.382 153.365,243.188 151.272 C 242.225 140.884,228.710 133.027,216.558 135.791 C 209.931 137.298,201.201 142.724,200.168 145.979 C 199.863 146.941,199.443 146.838,198.647 145.606 C 193.915 138.272,178.277 133.042,170.133 136.069 M216.725 149.037 C 205.722 151.829,203.924 166.242,213.946 171.310 C 218.672 173.700,226.168 172.539,229.340 168.926 C 237.422 159.721,228.716 145.994,216.725 149.037 M175.073 149.403 C 165.023 153.138,164.167 166.916,173.704 171.441 C 185.840 177.199,197.345 162.517,188.548 152.498 C 185.893 149.474,179.087 147.911,175.073 149.403 M223.229 153.021 C 225.130 153.598,227.646 156.684,228.187 159.104 C 230.009 167.246,219.363 172.648,213.444 166.586 C 207.036 160.024,214.089 150.246,223.229 153.021 M184.173 153.934 C 189.320 157.551,188.812 165.324,183.242 168.189 C 174.622 172.623,166.556 161.401,173.577 154.743 C 176.217 152.239,181.219 151.857,184.173 153.934 M180.926 178.978 C 167.960 183.659,160.235 201.194,164.603 216.033 C 173.129 245.004,213.736 250.218,230.621 224.509 C 240.399 209.623,235.281 188.140,220.031 180.054 C 215.921 177.875,215.923 178.287,220.040 182.316 C 229.824 191.891,233.431 202.533,230.597 213.469 C 222.822 243.479,180.483 245.662,169.269 216.631 C 164.798 205.053,168.338 192.852,179.141 182.615 C 183.653 178.339,183.859 177.919,180.926 178.978 M189.756 179.479 C 184.398 183.003,185.894 188.305,192.627 189.656 C 194.693 190.070,196.472 190.655,197.029 191.104 C 199.313 192.943,199.678 193.116,200.315 192.662 C 202.507 191.099,204.823 190.018,206.449 189.798 C 212.647 188.959,214.729 183.256,210.122 179.741 C 208.017 178.136,204.099 178.213,201.740 179.907 C 199.709 181.366,200.012 181.365,197.960 179.919 C 195.512 178.194,191.996 178.005,189.756 179.479 M195.911 183.192 C 197.860 184.832,199.089 188.237,197.500 187.595 C 197.144 187.451,195.769 187.166,194.444 186.961 C 191.322 186.479,190.949 186.266,190.811 184.887 C 190.534 182.110,193.466 181.135,195.911 183.192 M207.778 182.963 C 209.660 184.845,208.656 186.348,205.284 186.700 C 203.578 186.877,202.624 187.208,201.632 187.964 L 200.290 188.988 200.560 187.735 C 201.470 183.513,205.598 180.783,207.778 182.963 M143.808 276.436 C 144.464 276.716,145.488 277.465,146.085 278.100 L 147.171 279.254 146.299 280.183 C 145.241 281.309,144.562 281.351,143.503 280.356 C 141.661 278.626,137.235 279.308,136.103 281.497 C 133.687 286.168,138.410 290.663,143.015 288.074 L 144.465 287.260 145.469 288.263 C 148.054 290.849,140.076 293.752,136.481 291.534 C 127.347 285.898,133.980 272.231,143.808 276.436 M152.059 276.451 C 152.707 276.925,152.790 277.545,152.904 282.747 L 153.029 288.519 156.811 288.519 C 160.815 288.519,161.481 288.763,161.481 290.233 C 161.481 292.026,160.724 292.250,155.056 292.140 L 149.815 292.037 149.714 284.454 C 149.594 275.357,149.764 274.775,152.059 276.451 M166.825 276.508 C 167.313 276.996,167.407 278.215,167.407 284.030 C 167.407 291.897,167.201 292.683,165.314 292.020 L 164.259 291.649 164.159 284.377 C 164.045 276.092,164.643 274.326,166.825 276.508 M231.814 276.436 C 232.580 277.359,232.194 291.488,231.389 291.995 C 229.692 293.064,229.452 292.152,229.344 284.230 C 229.288 280.183,229.325 276.660,229.425 276.399 C 229.667 275.769,231.281 275.794,231.814 276.436 M240.230 277.840 C 240.865 278.519,242.002 280.053,242.755 281.250 L 244.124 283.426 245.359 281.551 C 248.519 276.753,250.478 275.238,251.881 276.508 C 252.537 277.102,252.593 277.722,252.593 284.495 L 252.593 291.838 251.662 292.071 C 250.038 292.479,249.630 291.728,249.630 288.340 C 249.630 286.662,249.524 284.520,249.396 283.582 L 249.162 281.875 247.399 284.363 C 244.489 288.473,244.047 288.433,240.626 283.753 L 239.444 282.136 239.348 286.716 C 239.243 291.759,238.671 293.097,237.003 292.204 C 235.841 291.582,235.924 277.340,237.094 276.520 C 238.038 275.859,238.595 276.094,240.230 277.840 M173.999 277.447 C 174.646 278.080,175.688 279.493,176.314 280.587 C 177.886 283.333,177.792 283.355,180.515 279.630 C 182.617 276.756,183.101 276.296,184.029 276.296 C 185.504 276.296,185.556 276.557,185.550 283.827 C 185.545 291.156,185.441 291.774,184.157 292.096 C 182.588 292.490,182.222 291.511,182.222 286.916 L 182.222 282.863 181.419 283.932 C 178.354 288.011,177.611 288.176,175.633 285.213 L 174.167 283.018 173.935 284.709 C 173.808 285.639,173.704 287.632,173.704 289.137 C 173.704 292.153,173.318 292.672,171.643 291.908 L 170.741 291.497 170.741 284.144 C 170.741 280.099,170.852 276.679,170.988 276.543 C 171.560 275.971,172.901 276.374,173.999 277.447 M200.675 277.522 C 200.889 279.393,200.331 279.630,195.695 279.630 L 191.481 279.630 191.481 281.065 C 191.481 282.716,192.071 282.975,195.370 282.773 C 198.437 282.585,199.225 283.143,198.517 285.003 C 198.179 285.893,198.045 285.926,194.824 285.926 L 191.481 285.926 191.481 287.222 L 191.481 288.519 195.901 288.519 C 200.681 288.519,201.184 288.761,200.549 290.762 C 200.053 292.325,190.388 293.023,188.825 291.609 C 188.035 290.894,187.818 280.279,188.541 277.676 L 188.929 276.278 194.742 276.380 L 200.556 276.481 200.675 277.522 M225.349 277.119 C 226.502 278.765,226.130 279.630,224.268 279.630 L 222.611 279.630 222.509 285.608 C 222.420 290.832,222.326 291.639,221.759 291.995 C 220.134 293.019,219.823 292.048,219.713 285.608 L 219.611 279.630 217.657 279.630 C 215.557 279.630,214.815 279.194,214.815 277.963 C 214.815 276.035,224.070 275.293,225.349 277.119 M268.815 276.741 C 270.639 278.565,268.813 279.630,263.862 279.630 L 259.630 279.630 259.630 281.111 L 259.630 282.593 261.991 282.593 C 265.533 282.593,266.567 282.885,266.838 283.965 C 267.257 285.634,266.520 285.988,262.896 285.858 L 259.628 285.741 259.629 287.130 L 259.630 288.519 264.029 288.519 C 268.969 288.519,269.686 288.824,269.042 290.654 C 268.437 292.376,258.653 293.062,257.224 291.483 C 256.410 290.585,256.579 277.849,257.418 276.839 C 258.008 276.128,268.115 276.041,268.815 276.741 M227.407 277.061 C 227.407 278.155,226.563 279.089,226.264 278.325 C 225.786 277.100,225.891 276.667,226.667 276.667 C 227.074 276.667,227.407 276.844,227.407 277.061 " stroke="none" fill="#d5d5db" fill-rule="evenodd"></path><path id="path1" d="M196.199 103.861 C 194.367 105.048,192.926 105.647,190.829 106.094 C 165.172 111.562,149.431 123.008,142.094 141.534 C 140.508 145.538,139.193 157.647,139.987 160.926 C 140.397 162.617,140.753 161.945,134.698 170.939 C 121.703 190.242,118.935 207.155,124.699 232.037 C 125.300 234.633,126.204 236.883,126.519 236.568 C 126.816 236.270,127.431 228.090,127.485 223.704 L 127.538 219.444 128.235 222.593 C 130.596 233.244,134.157 241.327,141.287 252.222 C 143.863 256.158,149.464 262.882,149.847 262.499 C 150.049 262.296,148.918 259.161,148.077 257.593 L 147.282 256.111 149.289 257.986 C 155.841 264.107,169.308 270.344,181.599 272.952 C 203.275 277.550,227.061 272.882,243.688 260.769 C 248.142 257.524,249.599 256.696,248.461 258.056 C 246.617 260.259,244.834 262.558,244.224 263.515 L 243.519 264.623 244.815 263.809 C 252.317 259.094,261.506 249.294,266.883 240.273 C 268.190 238.081,269.259 236.213,269.259 236.123 C 269.259 236.032,269.781 235.076,270.420 233.998 C 272.312 230.801,274.319 222.947,276.122 211.692 L 276.355 210.236 277.054 211.798 C 278.160 214.268,278.910 218.640,279.154 224.036 C 279.407 229.630,279.719 229.490,280.344 223.501 C 282.642 201.496,279.327 185.674,269.948 173.876 C 268.652 172.247,267.136 170.333,266.577 169.624 C 266.018 168.914,264.502 167.012,263.207 165.396 L 260.853 162.460 261.353 160.801 C 262.943 155.515,261.011 146.011,256.624 137.541 C 248.728 122.294,235.180 112.962,212.593 107.210 C 208.534 106.176,206.397 105.400,203.843 104.032 C 199.728 101.828,199.350 101.820,196.199 103.861 M181.717 135.523 C 185.253 136.253,190.409 138.432,192.853 140.229 C 195.762 142.368,198.265 144.619,198.904 145.669 L 199.565 146.756 200.134 145.654 C 200.943 144.090,204.450 140.991,207.381 139.249 C 227.114 127.526,249.316 142.102,242.452 162.273 C 238.895 172.724,233.191 177.406,222.946 178.286 L 218.091 178.704 220.559 180.146 C 240.531 191.821,240.930 221.197,221.296 234.444 C 199.478 249.165,170.086 238.963,163.997 214.556 C 160.779 201.658,166.700 186.727,177.534 180.425 L 180.068 178.951 177.904 178.731 C 169.723 177.901,165.990 176.165,161.788 171.241 C 147.626 154.640,160.711 131.188,181.717 135.523 M176.624 153.104 C 169.759 155.557,169.191 165.224,175.738 168.198 C 179.345 169.837,184.289 168.476,186.311 165.287 C 190.464 158.739,183.913 150.499,176.624 153.104 M216.944 153.121 C 212.359 154.757,209.918 160.062,211.854 164.182 C 215.362 171.644,227.289 169.922,228.066 161.840 C 228.673 155.520,222.901 150.995,216.944 153.121 M191.317 183.045 C 189.961 184.982,190.831 186.591,193.246 186.609 C 194.223 186.617,195.486 186.799,196.054 187.015 C 197.528 187.576,197.778 187.512,197.776 186.574 C 197.771 183.578,192.834 180.880,191.317 183.045 M203.688 183.056 C 202.521 183.842,201.122 186.096,200.532 188.139 C 200.273 189.035,200.298 189.029,201.595 187.891 C 202.632 186.980,203.392 186.672,205.072 186.484 C 208.075 186.147,208.148 186.103,208.148 184.662 C 208.148 182.338,205.935 181.541,203.688 183.056 M191.296 214.268 C 180.787 215.971,173.088 219.700,173.938 222.676 C 174.422 224.373,175.145 224.367,180.501 222.625 C 192.755 218.638,207.416 218.772,219.875 222.983 C 225.863 225.007,228.299 223.497,224.387 220.188 C 218.572 215.270,202.674 212.426,191.296 214.268 M137.557 276.326 C 130.460 278.385,130.668 289.935,137.837 291.869 C 142.224 293.052,148.034 289.985,145.076 288.047 C 144.302 287.539,144.134 287.558,143.171 288.260 C 140.028 290.549,135.188 287.877,135.186 283.851 C 135.184 280.065,140.411 277.790,143.572 280.201 C 144.962 281.261,146.038 281.026,146.504 279.559 C 147.244 277.228,141.544 275.168,137.557 276.326 M150.074 276.370 C 149.584 276.861,149.448 285.564,149.869 289.585 L 150.108 291.871 155.517 291.769 L 160.926 291.667 161.047 290.603 C 161.238 288.936,160.688 288.704,156.554 288.704 L 152.778 288.704 152.683 282.963 C 152.596 277.640,152.532 277.175,151.809 276.574 C 150.886 275.807,150.664 275.781,150.074 276.370 M229.704 276.370 C 228.811 277.263,229.105 290.857,230.035 291.699 C 231.823 293.316,232.281 291.566,232.151 283.622 C 232.027 276.040,231.524 274.550,229.704 276.370 M164.619 276.745 C 164.514 277.020,164.473 280.489,164.529 284.455 L 164.630 291.667 165.734 291.667 C 166.733 291.667,166.865 291.524,167.102 290.185 C 167.435 288.305,167.417 278.637,167.078 277.407 C 166.790 276.363,164.956 275.869,164.619 276.745 M171.076 277.314 C 170.817 277.996,170.789 280.535,170.993 285.000 L 171.296 291.667 172.407 291.667 L 173.519 291.667 173.704 286.877 L 173.889 282.087 175.267 284.322 C 177.510 287.962,178.903 287.800,181.404 283.611 C 182.404 281.936,182.565 282.382,182.674 287.130 L 182.778 291.667 183.889 291.667 L 185.000 291.667 185.100 284.158 C 185.229 274.515,184.602 274.035,180.157 280.378 C 177.781 283.770,177.973 283.762,176.082 280.529 C 173.781 276.595,171.827 275.340,171.076 277.314 M189.093 276.886 C 188.587 277.392,188.517 278.485,188.603 284.571 L 188.704 291.667 194.024 291.770 C 197.631 291.840,199.509 291.736,199.857 291.447 C 200.497 290.915,200.537 288.898,199.907 288.862 C 199.653 288.847,197.611 288.806,195.370 288.770 L 191.296 288.704 191.296 287.222 L 191.296 285.741 194.815 285.556 L 198.333 285.370 198.449 284.167 L 198.565 282.963 195.063 282.963 C 191.254 282.963,191.111 282.882,191.111 280.710 L 191.111 279.630 194.583 279.630 C 200.079 279.630,201.935 278.737,200.366 276.847 C 199.674 276.012,189.933 276.046,189.093 276.886 M215.397 276.878 C 214.053 278.222,214.953 279.334,217.559 279.550 L 219.630 279.721 219.630 285.390 C 219.630 291.250,219.869 292.222,221.310 292.222 C 222.322 292.222,222.593 290.745,222.593 285.210 L 222.593 279.630 224.012 279.630 C 224.793 279.630,225.528 279.534,225.645 279.417 C 225.966 279.095,225.266 276.947,224.729 276.606 C 223.798 276.015,216.033 276.242,215.397 276.878 M236.878 276.878 C 236.047 277.709,236.007 291.151,236.834 291.837 C 238.331 293.080,238.687 292.290,239.026 286.972 L 239.348 281.915 241.530 284.661 C 242.731 286.172,243.948 287.407,244.235 287.407 C 244.876 287.407,247.124 284.843,248.457 282.593 L 249.444 280.926 249.548 285.909 C 249.654 290.998,250.002 292.222,251.341 292.222 C 252.644 292.222,253.316 278.539,252.095 276.868 C 251.007 275.380,248.441 277.066,245.931 280.918 C 244.019 283.853,244.126 283.846,242.441 281.118 C 239.847 276.914,238.142 275.615,236.878 276.878 M258.148 276.776 L 257.222 277.244 257.222 284.455 L 257.222 291.667 262.542 291.770 C 268.350 291.882,268.889 291.728,268.889 289.955 L 268.889 288.889 264.907 288.884 C 259.532 288.877,259.191 288.767,259.332 287.081 L 259.444 285.741 261.296 285.709 C 267.025 285.611,266.726 285.688,266.598 284.352 L 266.481 283.148 263.160 283.040 C 259.557 282.923,259.274 282.763,259.265 280.833 C 259.258 279.363,258.618 279.567,264.074 279.300 L 268.704 279.074 268.816 277.921 C 268.917 276.888,268.805 276.743,267.751 276.532 C 265.659 276.113,259.130 276.279,258.148 276.776 " stroke="none" fill="#1a222a" fill-rule="evenodd"></path><path id="path2" d="M126.511 137.446 C 122.207 138.926,120.002 141.088,117.032 146.745 C 113.323 153.809,113.498 156.938,118.135 166.499 C 120.338 171.042,122.010 172.713,126.021 174.383 C 131.009 176.460,130.746 176.521,133.181 172.728 C 134.341 170.922,136.275 168.073,137.480 166.396 L 139.670 163.347 139.810 156.211 C 139.902 151.530,140.160 148.055,140.562 146.111 C 140.899 144.481,141.257 142.724,141.359 142.205 C 141.519 141.389,141.235 141.046,139.253 139.655 C 134.880 136.588,130.974 135.911,126.511 137.446 M265.497 137.525 C 263.444 138.390,260.844 139.821,259.516 140.815 C 258.878 141.294,258.899 141.469,259.962 144.641 C 262.267 151.521,262.782 158.066,261.317 161.854 C 261.179 162.211,262.804 164.548,265.828 168.342 C 268.428 171.604,270.935 174.756,271.399 175.347 L 272.242 176.422 275.658 174.733 C 279.562 172.804,280.576 171.964,282.340 169.200 C 286.895 162.059,288.638 153.527,286.434 149.154 C 281.186 138.743,273.171 134.291,265.497 137.525 M171.027 139.757 C 163.867 142.197,155.551 151.722,156.101 156.852 C 157.509 169.975,165.640 177.830,178.426 178.418 C 180.921 178.532,182.963 178.709,182.963 178.810 C 182.963 178.911,181.243 180.623,179.141 182.615 C 164.638 196.359,163.442 213.907,176.095 227.322 C 188.828 240.822,212.098 240.528,223.658 226.722 C 225.453 224.578,225.486 224.444,224.230 224.444 C 223.704 224.444,221.903 223.961,220.227 223.369 C 208.006 219.055,192.766 218.907,180.273 222.980 C 174.416 224.889,174.128 224.871,173.574 222.545 C 172.951 219.932,180.419 216.004,189.444 214.199 C 202.348 211.618,222.328 215.655,225.925 221.570 L 226.592 222.666 227.536 221.055 C 234.888 208.503,232.105 194.122,220.040 182.316 C 215.888 178.254,215.757 178.553,221.884 178.119 C 224.589 177.927,227.480 177.590,228.309 177.369 C 235.939 175.342,242.643 166.116,243.219 156.852 L 243.426 153.519 242.020 151.111 C 233.476 136.483,215.360 134.998,201.154 147.762 C 199.543 149.209,199.329 149.187,197.575 147.386 C 190.959 140.595,178.811 137.104,171.027 139.757 M225.331 149.574 C 232.600 152.790,234.682 162.841,229.340 168.926 C 223.738 175.305,210.700 172.865,207.997 164.932 C 204.541 154.788,215.389 145.176,225.331 149.574 M185.273 150.121 C 196.654 155.690,192.143 172.407,179.259 172.407 C 171.585 172.407,167.217 168.172,167.227 160.741 C 167.239 151.497,176.703 145.928,185.273 150.121 M197.960 179.919 C 200.012 181.365,199.709 181.366,201.740 179.907 C 204.099 178.213,208.017 178.136,210.122 179.741 C 214.729 183.256,212.647 188.959,206.449 189.798 C 204.823 190.018,202.507 191.099,200.315 192.662 C 199.678 193.116,199.313 192.943,197.029 191.104 C 196.472 190.655,194.693 190.070,192.627 189.656 C 188.397 188.807,187.071 187.772,186.767 185.081 C 186.163 179.720,193.123 176.510,197.960 179.919 " stroke="none" fill="#fa9b1c" fill-rule="evenodd"></path><path id="path3" d="M198.920 101.984 C 199.005 102.056,199.657 102.223,200.370 102.354 C 201.282 102.521,201.502 102.484,201.111 102.227 C 200.609 101.898,198.552 101.670,198.920 101.984 M174.907 135.085 C 175.671 135.165,176.921 135.165,177.685 135.085 C 178.449 135.005,177.824 134.939,176.296 134.939 C 174.769 134.939,174.144 135.005,174.907 135.085 M221.579 135.081 C 222.142 135.166,222.975 135.163,223.431 135.076 C 223.887 134.988,223.426 134.918,222.407 134.921 C 221.389 134.924,221.016 134.995,221.579 135.081 M243.427 152.407 C 243.431 153.222,243.507 153.512,243.595 153.051 C 243.684 152.591,243.681 151.924,243.588 151.570 C 243.495 151.216,243.423 151.593,243.427 152.407 M228.242 160.926 C 228.246 161.741,228.322 162.030,228.410 161.570 C 228.499 161.109,228.495 160.442,228.403 160.088 C 228.310 159.734,228.237 160.111,228.242 160.926 M178.426 169.150 C 178.884 169.239,179.634 169.239,180.093 169.150 C 180.551 169.062,180.176 168.990,179.259 168.990 C 178.343 168.990,177.968 169.062,178.426 169.150 M218.796 169.150 C 219.255 169.239,220.005 169.239,220.463 169.150 C 220.921 169.062,220.546 168.990,219.630 168.990 C 218.713 168.990,218.338 169.062,218.796 169.150 M226.481 184.815 C 227.277 185.630,228.011 186.296,228.113 186.296 C 228.215 186.296,227.647 185.630,226.852 184.815 C 226.056 184.000,225.322 183.333,225.220 183.333 C 225.118 183.333,225.686 184.000,226.481 184.815 M208.119 184.907 C 208.009 185.703,208.065 186.157,208.252 185.971 C 208.430 185.792,208.517 185.167,208.444 184.582 C 208.322 183.603,208.296 183.629,208.119 184.907 M205.467 186.558 C 205.928 186.647,206.595 186.643,206.949 186.551 C 207.303 186.458,206.926 186.386,206.111 186.390 C 205.296 186.394,205.007 186.470,205.467 186.558 M281.212 205.556 C 281.212 206.472,281.284 206.847,281.372 206.389 C 281.461 205.931,281.461 205.181,281.372 204.722 C 281.284 204.264,281.212 204.639,281.212 205.556 M163.084 206.852 C 163.086 208.278,163.153 208.816,163.233 208.047 C 163.313 207.279,163.312 206.112,163.230 205.455 C 163.148 204.797,163.083 205.426,163.084 206.852 M235.683 207.222 C 235.684 208.852,235.749 209.472,235.827 208.601 C 235.905 207.730,235.904 206.397,235.825 205.638 C 235.745 204.880,235.681 205.593,235.683 207.222 M121.628 209.815 C 121.628 212.667,121.686 213.784,121.757 212.299 C 121.827 210.813,121.827 208.480,121.756 207.113 C 121.685 205.747,121.627 206.963,121.628 209.815 M281.217 210.926 C 281.220 211.944,281.292 212.317,281.377 211.754 C 281.462 211.191,281.460 210.358,281.372 209.902 C 281.284 209.447,281.214 209.907,281.217 210.926 M280.834 217.222 C 280.838 218.037,280.914 218.327,281.003 217.866 C 281.091 217.405,281.088 216.739,280.995 216.385 C 280.903 216.030,280.830 216.407,280.834 217.222 M127.439 220.907 C 127.419 221.857,127.534 222.244,127.768 222.010 C 127.991 221.787,128.003 221.228,127.800 220.547 C 127.475 219.457,127.471 219.462,127.439 220.907 M278.982 223.519 C 278.986 224.333,279.062 224.623,279.151 224.162 C 279.239 223.702,279.236 223.035,279.143 222.681 C 279.051 222.327,278.978 222.704,278.982 223.519 M127.501 225.741 C 127.505 226.556,127.581 226.845,127.669 226.385 C 127.758 225.924,127.755 225.257,127.662 224.903 C 127.569 224.549,127.497 224.926,127.501 225.741 M127.138 231.852 C 127.138 232.769,127.210 233.144,127.298 232.685 C 127.387 232.227,127.387 231.477,127.298 231.019 C 127.210 230.560,127.138 230.935,127.138 231.852 M197.870 241.376 C 198.431 241.461,199.347 241.461,199.907 241.376 C 200.468 241.292,200.009 241.222,198.889 241.222 C 197.769 241.222,197.310 241.292,197.870 241.376 M147.644 256.852 C 147.761 257.157,148.006 257.407,148.188 257.407 C 148.370 257.407,148.477 257.532,148.426 257.685 C 148.375 257.838,148.441 257.963,148.572 257.963 C 148.704 257.963,149.204 258.292,149.683 258.694 C 150.163 259.097,149.897 258.722,149.092 257.861 C 147.480 256.139,147.330 256.034,147.644 256.852 M248.148 257.800 C 248.148 258.015,247.993 258.096,247.803 257.979 C 247.614 257.862,247.363 257.920,247.246 258.110 C 246.945 258.596,248.065 258.379,248.596 257.848 C 248.937 257.507,248.936 257.407,248.593 257.407 C 248.348 257.407,248.148 257.584,248.148 257.800 M148.311 261.381 C 149.317 262.445,150.220 263.237,150.317 263.140 C 150.414 263.042,150.421 262.921,150.333 262.870 C 150.244 262.819,149.341 262.028,148.326 261.111 L 146.481 259.445 148.311 261.381 M192.130 274.706 C 192.588 274.794,193.338 274.794,193.796 274.706 C 194.255 274.618,193.880 274.545,192.963 274.545 C 192.046 274.545,191.671 274.618,192.130 274.706 M203.981 274.706 C 204.440 274.794,205.190 274.794,205.648 274.706 C 206.106 274.618,205.731 274.545,204.815 274.545 C 203.898 274.545,203.523 274.618,203.981 274.706 M225.763 277.636 C 225.629 278.170,225.611 278.697,225.723 278.809 C 225.834 278.921,225.926 278.725,225.926 278.373 C 225.926 278.022,226.095 277.839,226.302 277.967 C 226.509 278.095,226.568 278.396,226.433 278.637 C 226.256 278.952,226.308 278.964,226.621 278.677 C 226.859 278.458,227.124 277.916,227.210 277.473 C 227.446 276.243,226.074 276.398,225.763 277.636 M164.223 282.593 C 164.223 285.750,164.280 287.042,164.349 285.463 C 164.419 283.884,164.419 281.301,164.349 279.722 C 164.280 278.144,164.223 279.435,164.223 282.593 M152.761 283.333 L 152.778 288.704 155.000 288.730 L 157.222 288.757 155.103 288.620 L 152.983 288.484 152.864 283.223 L 152.745 277.963 152.761 283.333 M185.338 284.444 C 185.338 288.009,185.393 289.468,185.461 287.685 C 185.529 285.903,185.529 282.986,185.461 281.204 C 185.393 279.421,185.338 280.880,185.338 284.444 M188.300 284.815 C 188.300 288.380,188.356 289.838,188.424 288.056 C 188.492 286.273,188.492 283.356,188.424 281.574 C 188.356 279.792,188.300 281.250,188.300 284.815 M263.611 279.530 C 264.477 279.608,265.894 279.608,266.759 279.530 C 267.625 279.452,266.917 279.389,265.185 279.389 C 263.454 279.389,262.745 279.452,263.611 279.530 M191.197 280.741 C 191.197 281.454,191.273 281.745,191.366 281.389 C 191.460 281.032,191.460 280.449,191.366 280.093 C 191.273 279.736,191.197 280.028,191.197 280.741 M259.353 280.926 C 259.357 281.741,259.433 282.030,259.521 281.570 C 259.610 281.109,259.606 280.442,259.514 280.088 C 259.421 279.734,259.349 280.111,259.353 280.926 M256.814 285.926 C 256.814 288.880,256.871 290.088,256.942 288.611 C 257.012 287.134,257.012 284.718,256.942 283.241 C 256.871 281.764,256.814 282.972,256.814 285.926 M249.168 281.389 C 249.093 281.542,249.145 282.250,249.282 282.963 L 249.532 284.259 249.581 282.685 C 249.627 281.208,249.480 280.748,249.168 281.389 M173.704 283.682 C 173.704 284.509,173.769 285.185,173.848 285.185 C 174.145 285.185,174.289 282.540,174.002 282.363 C 173.838 282.262,173.704 282.855,173.704 283.682 M135.279 283.889 C 135.283 284.704,135.359 284.993,135.447 284.533 C 135.536 284.072,135.532 283.405,135.440 283.051 C 135.347 282.697,135.274 283.074,135.279 283.889 M261.028 282.864 C 261.899 282.942,263.233 282.941,263.991 282.862 C 264.750 282.782,264.037 282.718,262.407 282.720 C 260.778 282.721,260.157 282.786,261.028 282.864 M179.239 286.204 L 177.963 287.593 179.352 286.316 C 180.645 285.128,180.911 284.815,180.628 284.815 C 180.566 284.815,179.941 285.440,179.239 286.204 M170.796 288.404 C 170.766 290.073,170.866 291.515,171.019 291.610 C 171.171 291.705,171.250 290.757,171.193 289.503 C 171.018 285.668,170.855 285.214,170.796 288.404 M193.056 285.828 C 194.023 285.904,195.606 285.904,196.574 285.828 C 197.542 285.751,196.750 285.689,194.815 285.689 C 192.880 285.689,192.088 285.751,193.056 285.828 M182.347 288.519 C 182.347 290.046,182.412 290.671,182.492 289.907 C 182.572 289.144,182.572 287.894,182.492 287.130 C 182.412 286.366,182.347 286.991,182.347 288.519 M259.345 287.407 C 259.345 288.120,259.421 288.412,259.515 288.056 C 259.608 287.699,259.608 287.116,259.515 286.759 C 259.421 286.403,259.345 286.694,259.345 287.407 M239.004 289.444 C 239.006 290.667,239.075 291.122,239.157 290.456 C 239.240 289.791,239.238 288.791,239.154 288.234 C 239.069 287.678,239.002 288.222,239.004 289.444 M193.241 288.790 C 194.106 288.868,195.523 288.868,196.389 288.790 C 197.255 288.712,196.546 288.648,194.815 288.648 C 193.083 288.648,192.375 288.712,193.241 288.790 M263.807 288.791 C 264.781 288.868,266.281 288.867,267.141 288.789 C 268.000 288.711,267.204 288.649,265.370 288.650 C 263.537 288.651,262.834 288.715,263.807 288.791 M149.722 290.833 L 149.815 292.037 155.185 292.053 L 160.556 292.070 155.300 291.951 L 150.045 291.832 149.838 290.731 C 149.636 289.662,149.632 289.665,149.722 290.833 M191.574 292.127 C 192.949 292.198,195.199 292.198,196.574 292.127 C 197.949 292.055,196.824 291.997,194.074 291.997 C 191.324 291.997,190.199 292.055,191.574 292.127 M260.108 292.127 C 261.491 292.198,263.658 292.198,264.923 292.126 C 266.187 292.054,265.056 291.995,262.407 291.996 C 259.759 291.996,258.725 292.055,260.108 292.127 " stroke="none" fill="#7e8084" fill-rule="evenodd"></path><path id="path4" d="M139.744 154.259 C 139.746 155.481,139.816 155.937,139.898 155.271 C 139.980 154.605,139.979 153.605,139.894 153.049 C 139.810 152.492,139.742 153.037,139.744 154.259 M243.444 155.556 C 243.444 156.676,243.514 157.134,243.599 156.574 C 243.683 156.014,243.683 155.097,243.599 154.537 C 243.514 153.977,243.444 154.435,243.444 155.556 M261.973 156.111 C 261.975 157.537,262.042 158.075,262.122 157.307 C 262.202 156.538,262.201 155.371,262.119 154.714 C 262.037 154.056,261.972 154.685,261.973 156.111 M156.359 160.185 C 156.353 160.593,156.492 161.259,156.667 161.667 C 157.072 162.610,157.072 161.637,156.667 160.370 C 156.428 159.626,156.368 159.590,156.359 160.185 M264.444 167.037 C 265.297 168.056,266.078 168.889,266.180 168.889 C 266.282 168.889,265.668 168.056,264.815 167.037 C 263.962 166.019,263.181 165.185,263.079 165.185 C 262.977 165.185,263.592 166.019,264.444 167.037 M135.926 168.519 C 135.491 169.130,135.218 169.630,135.320 169.630 C 135.422 169.630,135.861 169.130,136.296 168.519 C 136.731 167.907,137.004 167.407,136.902 167.407 C 136.800 167.407,136.361 167.907,135.926 168.519 M159.552 168.333 C 159.763 168.741,160.547 169.741,161.295 170.556 L 162.654 172.037 161.253 170.185 C 159.492 167.858,159.066 167.393,159.552 168.333 M235.913 172.870 L 233.889 175.000 236.019 172.976 C 237.190 171.862,238.148 170.904,238.148 170.846 C 238.148 170.571,237.794 170.892,235.913 172.870 M165.097 174.523 C 165.533 175.049,168.519 176.827,168.519 176.561 C 168.519 176.476,167.655 175.870,166.599 175.214 C 165.544 174.558,164.867 174.247,165.097 174.523 M224.907 178.033 C 225.264 178.126,225.847 178.126,226.204 178.033 C 226.560 177.940,226.269 177.864,225.556 177.864 C 224.843 177.864,224.551 177.940,224.907 178.033 M219.544 178.417 C 220.209 178.499,221.209 178.497,221.766 178.413 C 222.322 178.328,221.778 178.261,220.556 178.263 C 219.333 178.265,218.878 178.334,219.544 178.417 M178.796 178.780 C 179.255 178.868,180.005 178.868,180.463 178.780 C 180.921 178.692,180.546 178.619,179.630 178.619 C 178.713 178.619,178.338 178.692,178.796 178.780 M197.145 213.608 C 198.529 213.680,200.695 213.679,201.960 213.607 C 203.225 213.535,202.093 213.477,199.444 213.477 C 196.796 213.478,195.762 213.537,197.145 213.608 M190.370 214.074 C 188.519 214.464,190.418 214.480,192.593 214.093 C 194.096 213.825,194.132 213.797,192.963 213.799 C 192.250 213.800,191.083 213.924,190.370 214.074 M206.019 213.959 C 206.375 214.052,206.958 214.052,207.315 213.959 C 207.671 213.866,207.380 213.790,206.667 213.790 C 205.954 213.790,205.662 213.866,206.019 213.959 M185.926 215.000 C 185.009 215.266,184.509 215.496,184.815 215.512 C 185.120 215.528,186.204 215.309,187.222 215.026 C 188.241 214.743,188.741 214.512,188.333 214.514 C 187.926 214.516,186.843 214.734,185.926 215.000 M218.889 217.222 C 219.398 217.513,219.981 217.752,220.185 217.752 C 220.389 217.752,220.139 217.513,219.630 217.222 C 219.120 216.931,218.537 216.693,218.333 216.693 C 218.130 216.693,218.380 216.931,218.889 217.222 M196.759 219.903 C 197.931 219.977,199.847 219.977,201.019 219.903 C 202.190 219.830,201.231 219.770,198.889 219.770 C 196.546 219.770,195.588 219.830,196.759 219.903 M191.764 220.262 C 192.224 220.351,192.891 220.347,193.245 220.254 C 193.599 220.162,193.222 220.089,192.407 220.093 C 191.593 220.098,191.303 220.173,191.764 220.262 M205.097 220.262 C 205.558 220.351,206.224 220.347,206.578 220.254 C 206.932 220.162,206.556 220.089,205.741 220.093 C 204.926 220.098,204.636 220.173,205.097 220.262 M182.778 221.852 C 182.311 222.052,182.242 222.170,182.593 222.170 C 182.898 222.170,183.481 222.027,183.889 221.852 C 184.356 221.651,184.424 221.534,184.074 221.534 C 183.769 221.534,183.185 221.677,182.778 221.852 M173.727 223.010 C 173.694 223.873,174.632 224.529,175.628 224.338 C 176.376 224.195,176.355 224.169,175.451 224.125 C 174.757 224.091,174.311 223.802,174.086 223.241 C 173.859 222.677,173.743 222.602,173.727 223.010 M222.350 224.161 C 222.912 224.519,225.464 224.523,225.682 224.167 C 225.776 224.014,224.968 223.889,223.887 223.889 C 222.806 223.889,222.114 224.011,222.350 224.161 M164.167 289.444 C 164.172 290.259,164.247 290.549,164.336 290.088 C 164.425 289.628,164.421 288.961,164.329 288.607 C 164.236 288.253,164.163 288.630,164.167 289.444 " stroke="none" fill="#845422" fill-rule="evenodd"></path></g></svg>